<svg id="Layer_1" data-name="Layer 1" xmlns="http://www.w3.org/2000/svg" viewBox="0 0 1000 1000"><title>instagram</title><path d="M932,500c0,60,0,119-3,178-3,69-19,131-70,181-50,51-112,67-181,70-59,3-118,3-178,3s-119,0-178-3c-69-3-131-19-181-70C90,809,74,747,71,678c-3-59-3-118-3-178s0-119,3-178c3-69,19-131,70-181,50-51,112-67,181-70,59-3,118-3,178-3s119,0,178,3c69,3,131,19,181,70,51,50,67,112,70,181C932,381,932,440,932,500ZM500,146c-63,0-198-5-255,17-20,8-34,18-49,33s-25,29-33,49c-22,57-17,192-17,255s-5,198,17,255c8,20,18,34,33,49s29,25,49,33c57,22,192,17,255,17s198,5,255-17c20-8,34-18,49-33,16-15,25-29,33-49,22-57,17-192,17-255s5-198-17-255c-8-20-17-34-33-49-15-15-29-25-49-33C698,141,563,146,500,146ZM782,269c0,29-23,52-51,52a51.64419,51.64419,0,0,1-52-52c0-28,23-51,52-51A51.21473,51.21473,0,0,1,782,269ZM722,500A222,222,0,1,1,500,278,221.499,221.499,0,0,1,722,500Zm-78,0c0-79-65-144-144-144S356,421,356,500s65,144,144,144S644,579,644,500Z" fill="#fff"/></svg>