<svg id="Layer_1" data-name="Layer 1" xmlns="http://www.w3.org/2000/svg" viewBox="0 0 1000 1000"><title>twitter</title><path d="M943,256.43955c-25,35-55,68-91,93a192.68723,192.68723,0,0,1,1,24c0,240-183,517-517,517-103,0-199-30-279-82a304.27607,304.27607,0,0,0,44,3,361.14507,361.14507,0,0,0,225-78c-80-2-147-54-170-126a206.79169,206.79169,0,0,0,35,3,183.52558,183.52558,0,0,0,47-6c-83-17-145-90-145-179v-2c24,14,52,22,82,23-49-32-81-88-81-151a178.54229,178.54229,0,0,1,25-92c89,110,224,182,374,190-3-13-4-27-4-41,0-100,81-182,181-182a181.69057,181.69057,0,0,1,133,57c41-8,81-23,115-44-13,43-42,78-79,101A363.482,363.482,0,0,0,943,256.43955Z" fill="#fff"/></svg>